<svg width="1152" height="1200" viewBox="0 0 1152 1200" fill="none" xmlns="http://www.w3.org/2000/svg">
<path d="M411.776 24.8412C224.096 38.7417 64.5462 51.5255 57.0447 53.0224C36.012 56.7768 16.8784 71.0575 7.88133 89.8529L0 106.391L0.759646 500.548L1.87538 894.704L13.8873 919.131C20.6529 932.651 66.4453 995.786 116.368 1060.77C215.099 1188.9 222.22 1196.05 259.752 1199.8C270.648 1200.92 352.476 1197.17 441.07 1191.91C530.043 1186.28 672.667 1177.63 758.269 1172.76C1123.87 1150.54 1105.1 1152.42 1126.1 1134.39C1152.38 1112.6 1150.51 1148.29 1151.62 669.231C1152.38 263.051 1152 236.39 1146 223.987C1138.88 210.086 1126.1 200.32 959.433 83.0808C847.955 4.92906 840.074 0.794547 790.127 0.0341774C769.498 -0.702431 599.076 10.5605 411.776 24.8412Z" fill="white"/>
<path d="M447.528 1161.2C405.435 1163.69 364.95 1165.83 333.695 1167.21C318.067 1167.9 304.749 1168.4 294.691 1168.67C284.618 1168.93 277.849 1168.95 275.294 1168.69C266.385 1167.8 259.329 1166.71 252.275 1163.7C245.224 1160.69 238.145 1155.75 229.228 1147.1C211.379 1129.78 186.255 1097.72 139.334 1036.91C115.616 1006.08 92.8792 975.686 75.2694 951.398C66.4644 939.254 58.9422 928.638 53.2204 920.258C47.494 911.87 43.5864 905.745 41.9933 902.566C41.9929 902.565 41.9924 902.565 41.992 902.564L30.6221 879.473L29.5622 505.515L29.5622 505.515L28.8405 131.555L36.2879 115.948C36.2881 115.948 36.2882 115.948 36.2883 115.948C44.7767 98.2393 62.8407 84.7707 82.6978 81.2309L82.6979 81.231L82.7063 81.2293C83.5703 81.0572 86.6899 80.7144 91.8796 80.2196C97.0539 79.7264 104.256 79.0846 113.257 78.313C131.259 76.7698 156.452 74.708 186.996 72.2783C248.083 67.4189 330.574 61.0881 419.747 54.4923L419.748 54.4922L748.98 1143.45L748.956 1143.03C667.609 1147.65 532.078 1155.86 447.528 1161.2ZM447.528 1161.2L447.553 1161.63L447.526 1161.2C447.527 1161.2 447.527 1161.2 447.528 1161.2ZM1117.05 243.249C1117.05 243.25 1117.05 243.251 1117.05 243.253L1117.43 243.058L1117.05 243.244C1117.05 243.245 1117.05 243.247 1117.05 243.249ZM939.897 109.686L940.141 109.338L939.897 109.686C939.897 109.686 939.897 109.686 939.897 109.686ZM820.824 102.524L820.822 102.523C809.156 97.3226 793.926 94.6499 765.997 94.5174C738.066 94.3848 697.388 96.7935 634.8 101.788L634.834 102.212L634.8 101.788C577.006 106.433 482.127 113.559 424.334 117.483L424.332 117.483C273.264 128.351 198.34 133.787 161.186 138.022C151.896 139.08 144.959 140.065 139.78 141.042C134.606 142.019 131.162 142.992 128.871 144.036C126.573 145.084 125.388 146.226 124.81 147.561C124.286 148.77 124.289 150.089 124.292 151.459C124.292 151.565 124.292 151.671 124.292 151.777C124.292 152.041 124.419 152.326 124.571 152.59C124.732 152.872 124.965 153.2 125.257 153.569C125.842 154.307 126.697 155.245 127.785 156.353C129.962 158.573 133.1 161.507 136.956 164.957C144.67 171.859 155.274 180.843 166.846 190.339C189.988 209.327 217.02 230.376 232.557 240.907L232.559 240.909C240.096 245.947 253.35 251.315 262.325 252.746L262.331 252.747C262.978 252.842 264.264 252.889 266.116 252.896C267.979 252.904 270.443 252.872 273.466 252.802C279.512 252.663 287.803 252.375 298.013 251.957C318.434 251.12 346.539 249.765 379.727 248.043C446.104 244.601 532.82 239.699 619.079 234.573C705.338 229.447 791.141 224.098 855.691 219.762C887.965 217.594 914.928 215.68 933.979 214.173C943.504 213.42 951.054 212.769 956.301 212.238C958.924 211.973 960.977 211.738 962.414 211.535C963.132 211.434 963.703 211.339 964.118 211.252C964.325 211.209 964.501 211.166 964.641 211.122C964.758 211.085 964.917 211.029 965.03 210.932L965.042 210.921L965.053 210.91C966.275 209.689 966.443 208.072 965.78 206.271C965.126 204.492 963.649 202.478 961.489 200.319L961.482 200.312L961.475 200.305C953.429 192.964 922.01 170.209 890.764 148.465C875.133 137.588 859.534 126.956 846.906 118.619C834.294 110.294 824.607 104.232 820.824 102.524ZM1047.22 321.795L1047.22 321.783C1045.79 312.456 1041.47 302.733 1036.41 297.667L1036.3 297.566C1033.67 294.931 1031.63 292.894 1026.79 291.584C1021.93 290.27 1014.26 289.684 1000.26 289.841C972.461 290.155 919.553 293.411 813.859 299.917L811.397 300.068C783.779 301.704 749.884 303.74 713.226 305.943C630.084 310.938 532.73 316.787 462.169 320.746L462.168 320.747C389.756 325.02 343.021 328.047 313.584 330.542C298.867 331.79 288.465 332.905 281.338 333.977C277.774 334.513 275.021 335.04 272.952 335.569C270.9 336.094 269.482 336.631 268.615 337.206C266.212 338.678 263.675 341.592 261.479 344.996C259.275 348.413 257.385 352.372 256.3 355.978L256.3 355.979C255.926 357.237 255.6 360.013 255.308 364.319C255.015 368.646 254.754 374.565 254.525 382.147C254.065 397.312 253.729 419.146 253.505 448.231C253.056 506.4 253.056 593.586 253.417 714.464L254.478 1058.91L254.478 1059.08L254.591 1059.2L263.163 1068.47L263.169 1068.47L263.174 1068.48C265.698 1071 269.298 1073.7 273.112 1075.98C276.922 1078.26 280.974 1080.15 284.409 1081.06C284.684 1081.14 285.119 1081.2 285.677 1081.24C286.251 1081.29 286.986 1081.32 287.876 1081.35C289.657 1081.4 292.073 1081.41 295.079 1081.38C301.093 1081.31 309.483 1081.1 319.908 1080.75C340.759 1080.04 369.761 1078.8 404.197 1077.16C473.071 1073.89 563.686 1069.07 654.312 1063.92C744.937 1058.77 835.574 1053.3 904.49 1048.73C938.947 1046.45 967.976 1044.4 988.859 1042.72C999.3 1041.88 1007.71 1041.14 1013.74 1040.51C1016.75 1040.2 1019.18 1039.91 1020.97 1039.66C1021.87 1039.53 1022.61 1039.41 1023.18 1039.3C1023.74 1039.19 1024.18 1039.08 1024.45 1038.97C1027.21 1038.06 1030.37 1036.06 1033.29 1033.59C1036.21 1031.12 1038.92 1028.15 1040.73 1025.25C1042.3 1022.85 1043.47 1019.78 1044.37 1011.59C1045.28 1003.4 1045.93 990.037 1046.42 966.994C1047.4 920.9 1047.75 836.028 1048.28 676.288C1048.64 583.224 1048.64 496.755 1048.42 432.481C1048.31 400.344 1048.14 373.756 1047.94 354.665C1047.83 345.12 1047.72 337.448 1047.6 331.894C1047.48 326.355 1047.36 322.894 1047.22 321.795Z" fill="#121212" stroke="black" stroke-width="0.850488"/>
<path d="M419.76 957.377V940.59L479.213 926.601V455.169L419.76 441.53V424.743H634.142C670.28 424.743 702.222 430.572 729.967 442.229C757.945 453.654 779.745 470.674 795.366 493.29C811.22 515.672 819.147 543.3 819.147 576.175C819.147 610.448 809.122 638.659 789.071 660.809C769.253 682.958 741.275 698.463 705.137 707.322L850.973 926.601L927.563 940.59V957.377H772.284L619.104 716.415H557.902V926.601L636.59 940.59V957.377H419.76ZM557.902 688.087H598.47C626.914 688.087 649.297 684.707 665.617 677.945C682.171 671.184 695.577 662.091 705.836 650.667C716.095 639.242 723.322 626.535 727.519 612.546C731.949 598.324 734.164 583.869 734.164 569.18C734.164 541.435 728.568 518.586 717.377 500.634C706.186 482.681 690.681 469.741 670.863 461.814C662.936 458.55 654.193 456.335 644.634 455.169C635.075 453.77 623.067 453.071 608.612 453.071H557.902V688.087Z" fill="#121212"/>
</svg>
