<svg width="1200" height="1200" viewBox="0 0 1200 1200" fill="none" xmlns="http://www.w3.org/2000/svg">
<path d="M435.776 24.8412C248.096 38.7417 88.5462 51.5255 81.0447 53.0224C60.012 56.7768 40.8784 71.0575 31.8813 89.8529L24 106.391L24.7596 500.548L25.8754 894.704L37.8873 919.131C44.6529 932.651 90.4453 995.786 140.368 1060.77C239.099 1188.9 246.22 1196.05 283.752 1199.8C294.648 1200.92 376.476 1197.17 465.07 1191.91C554.043 1186.28 696.667 1177.63 782.269 1172.76C1147.87 1150.54 1129.1 1152.42 1150.1 1134.39C1176.38 1112.6 1174.51 1148.29 1175.62 669.231C1176.38 263.051 1176 236.39 1170 223.987C1162.88 210.086 1150.1 200.32 983.433 83.0808C871.955 4.92906 864.074 0.794547 814.127 0.0341774C793.498 -0.702431 623.076 10.5605 435.776 24.8412Z" fill="white"/>
<path d="M106.698 81.231L106.698 81.2309C86.8405 84.7707 68.7762 98.2396 60.2879 115.948L52.8405 131.555L53.5622 505.515L53.5622 505.515L54.6221 879.473L65.992 902.564C67.5842 905.741 71.4924 911.868 77.2204 920.258C82.9422 928.638 90.4643 939.254 99.2694 951.398C116.879 975.686 139.616 1006.08 163.334 1036.91C210.255 1097.72 235.379 1129.78 253.228 1147.1C262.145 1155.75 269.224 1160.69 276.275 1163.7C283.329 1166.71 290.385 1167.8 299.293 1168.69L299.294 1168.69C301.849 1168.95 308.618 1168.93 318.691 1168.67C328.749 1168.4 342.067 1167.9 357.695 1167.21C388.95 1165.83 429.435 1163.69 471.528 1161.2M106.698 81.231L772.98 1143.45L772.956 1143.03C691.609 1147.65 556.078 1155.86 471.528 1161.2M106.698 81.231L106.706 81.2293C107.57 81.0572 110.69 80.7144 115.88 80.2196C121.054 79.7264 128.256 79.0845 137.257 78.313C155.259 76.7698 180.452 74.708 210.996 72.2783C272.083 67.4189 354.574 61.0881 443.747 54.4923L443.716 54.0682M106.698 81.231L443.716 54.0682M471.528 1161.2L471.553 1161.62L471.526 1161.2C471.526 1161.2 471.527 1161.2 471.528 1161.2ZM443.716 54.0682L443.748 54.4922C532.74 47.7161 617.722 41.6559 682.906 37.3772C748.108 33.0973 793.465 30.6026 803.238 30.9511V30.9512L803.247 30.9513C826.954 31.3118 840.618 32.4705 861.583 42.7718C882.593 53.0956 910.916 72.5936 963.897 109.686C1043.09 165.319 1085.71 195.446 1109.38 213.314C1133.06 231.186 1137.71 236.751 1141.05 243.249L443.716 54.0682ZM985.489 200.319L985.482 200.312L985.475 200.305C977.429 192.964 946.01 170.209 914.764 148.465C899.133 137.588 883.534 126.956 870.906 118.619C858.294 110.294 848.607 104.232 844.824 102.524L844.649 102.911L844.822 102.523C833.156 97.3226 817.926 94.6499 789.997 94.5174C762.066 94.3848 721.388 96.7935 658.8 101.788L658.83 102.166L658.8 101.788C601.006 106.433 506.127 113.559 448.334 117.483L448.332 117.483C297.264 128.351 222.34 133.787 185.186 138.022C175.896 139.08 168.959 140.065 163.78 141.042C158.606 142.019 155.162 142.992 152.871 144.036C150.573 145.084 149.388 146.226 148.81 147.561C148.286 148.77 148.289 150.089 148.292 151.459C148.292 151.565 148.292 151.671 148.292 151.777C148.292 152.041 148.419 152.326 148.571 152.59C148.732 152.872 148.965 153.2 149.257 153.569C149.842 154.307 150.697 155.245 151.785 156.353C153.962 158.573 157.1 161.507 160.956 164.957C168.67 171.859 179.274 180.843 190.846 190.339C213.988 209.327 241.02 230.376 256.557 240.907L256.559 240.909C264.096 245.947 277.35 251.315 286.325 252.746L286.331 252.747C286.978 252.842 288.264 252.889 290.116 252.896C291.979 252.904 294.443 252.872 297.466 252.802C303.512 252.663 311.803 252.375 322.013 251.957C342.434 251.12 370.539 249.765 403.727 248.043C470.104 244.601 556.82 239.699 643.079 234.573C729.338 229.447 815.141 224.098 879.691 219.762C911.965 217.594 938.928 215.68 957.979 214.173C967.504 213.42 975.054 212.769 980.301 212.238C982.924 211.973 984.977 211.738 986.414 211.535C987.132 211.434 987.703 211.339 988.118 211.252C988.325 211.209 988.501 211.166 988.641 211.122C988.758 211.085 988.917 211.029 989.03 210.932L989.042 210.921L989.053 210.91C990.275 209.689 990.443 208.072 989.78 206.271C989.126 204.492 987.649 202.478 985.489 200.319ZM1071.22 321.795L1071.22 321.783C1069.79 312.456 1065.47 302.733 1060.41 297.667L1060.3 297.565C1057.67 294.931 1055.63 292.894 1050.79 291.584C1045.93 290.27 1038.26 289.683 1024.26 289.841C996.461 290.155 943.553 293.411 837.859 299.917L835.397 300.068C807.778 301.704 773.883 303.74 737.224 305.943C654.082 310.938 556.729 316.787 486.169 320.746L486.168 320.747C413.756 325.02 367.021 328.047 337.584 330.542C322.867 331.79 312.465 332.905 305.338 333.977C301.774 334.513 299.021 335.04 296.952 335.569C294.9 336.094 293.482 336.631 292.615 337.206C290.213 338.678 287.675 341.592 285.479 344.996C283.275 348.413 281.385 352.372 280.3 355.978L280.3 355.98C279.926 357.237 279.6 360.013 279.308 364.319C279.015 368.646 278.754 374.565 278.525 382.147C278.065 397.313 277.729 419.146 277.505 448.231C277.056 506.4 277.056 593.586 277.417 714.464L278.478 1058.91L278.478 1059.08L278.591 1059.2L287.163 1068.47L287.169 1068.47L287.174 1068.48C289.698 1071 293.298 1073.7 297.112 1075.98C300.922 1078.26 304.974 1080.15 308.409 1081.06C308.684 1081.14 309.119 1081.2 309.677 1081.24C310.251 1081.29 310.986 1081.32 311.876 1081.35C313.657 1081.4 316.073 1081.41 319.079 1081.38C325.093 1081.31 333.483 1081.1 343.908 1080.75C364.759 1080.04 393.761 1078.8 428.197 1077.16C497.071 1073.89 587.686 1069.07 678.312 1063.92C768.937 1058.77 859.574 1053.3 928.49 1048.73C962.947 1046.45 991.976 1044.4 1012.86 1042.72C1023.3 1041.88 1031.71 1041.14 1037.74 1040.51C1040.75 1040.2 1043.18 1039.91 1044.97 1039.66C1045.87 1039.53 1046.61 1039.41 1047.18 1039.3C1047.74 1039.19 1048.18 1039.08 1048.45 1038.97C1051.21 1038.05 1054.37 1036.06 1057.29 1033.59C1060.21 1031.12 1062.92 1028.15 1064.73 1025.25C1066.3 1022.85 1067.47 1019.78 1068.37 1011.59C1069.28 1003.4 1069.93 990.037 1070.42 966.994C1071.4 920.9 1071.75 836.028 1072.28 676.288C1072.64 583.224 1072.64 496.755 1072.42 432.481C1072.31 400.344 1072.14 373.756 1071.94 354.665C1071.83 345.12 1071.72 337.448 1071.6 331.894C1071.48 326.355 1071.36 322.894 1071.22 321.795Z" fill="#121212" stroke="black" stroke-width="0.850488"/>
<path d="M443.76 957.377V940.59L503.213 926.601V455.169L443.76 441.53V424.743H658.142C694.28 424.743 726.222 430.572 753.967 442.229C781.945 453.654 803.745 470.674 819.366 493.29C835.22 515.672 843.147 543.3 843.147 576.175C843.147 610.448 833.122 638.659 813.071 660.809C793.253 682.958 765.275 698.463 729.137 707.322L874.973 926.601L951.563 940.59V957.377H796.284L643.104 716.415H581.902V926.601L660.59 940.59V957.377H443.76ZM581.902 688.087H622.47C650.914 688.087 673.297 684.707 689.617 677.945C706.171 671.184 719.577 662.091 729.836 650.667C740.095 639.242 747.322 626.535 751.519 612.546C755.949 598.324 758.164 583.869 758.164 569.18C758.164 541.435 752.568 518.586 741.377 500.634C730.186 482.681 714.681 469.741 694.863 461.814C686.936 458.55 678.193 456.335 668.634 455.169C659.075 453.77 647.067 453.071 632.612 453.071H581.902V688.087Z" fill="#121212"/>
</svg>
